<svg aria-hidden="true" style="position: absolute; width: 0; height: 0; overflow: hidden;" version="1.1" xmlns="http://www.w3.org/2000/svg" xmlns:xlink="http://www.w3.org/1999/xlink">
<defs>
<symbol id="icon-logo" viewBox="0 0 41 32">
<path fill="#f5f5f5" style="fill: var(--color1, #f5f5f5)" d="M0 0h40.615v32h-40.615v-32z"></path>
<path fill="#fefefe" style="fill: var(--color2, #fefefe)" d="M-9.846-6.154h787.692v2339.692h-787.692v-2339.692z"></path>
<path fill="#fefefe" style="fill: var(--color2, #fefefe)" d="M-9.846-6.154h787.692v44.308h-787.692v-44.308z"></path>
<path fill="#ffe550" style="fill: var(--color3, #ffe550)" d="M14.121 6.486c1.014-1.989 3.864-1.989 4.878 0l1.263 2.476c0.397 0.778 1.143 1.32 2.008 1.458l2.759 0.439c2.203 0.351 3.082 3.042 1.508 4.62l-1.986 1.991c-0.615 0.617-0.899 1.489-0.764 2.349l0.436 2.769c0.347 2.202-1.957 3.868-3.947 2.854l-2.472-1.259c-0.782-0.398-1.707-0.398-2.489 0l-2.472 1.259c-1.991 1.014-4.295-0.652-3.947-2.854l0.436-2.769c0.135-0.859-0.148-1.732-0.764-2.349l-1.986-1.991c-1.574-1.577-0.695-4.269 1.508-4.62l2.759-0.439c0.865-0.138 1.611-0.68 2.008-1.458l1.263-2.476z"></path>
<path fill="#2c2c2c" style="fill: var(--color4, #2c2c2c)" d="M1.118 20.356l-0.021 0.005c0.003 0.074-0.001 0.374-0.012 0.9-0.003 0.524-0.005 0.869-0.003 1.033-0 0.157-0.004 0.285-0.010 0.384 0 0.097 0.001 0.209 0.001 0.336-0.002 0.12-0.008 0.219-0.020 0.296-0.006 0.069-0.012 0.138-0.019 0.206-0.014 0.13-0.042 0.201-0.085 0.211-0.092 0.022-0.236-0.049-0.432-0.212-0.198-0.17-0.312-0.319-0.342-0.446s-0.037-1.061-0.021-2.8c0.023-1.741-0.022-2.885-0.137-3.434-0.025-0.106-0.020-0.197 0.014-0.273 0.036-0.166 0.22-0.321 0.553-0.467 0.34-0.148 0.847-0.301 1.522-0.461 0.682-0.161 1.222-0.252 1.623-0.272 0.407-0.022 0.626 0.031 0.656 0.159 0.020 0.085-0.026 0.159-0.138 0.223s-0.212 0.117-0.299 0.161c-0.089 0.036-0.205 0.082-0.35 0.139-0.146 0.049-0.281 0.096-0.405 0.141-0.126 0.037-0.29 0.091-0.49 0.161-0.194 0.068-0.373 0.133-0.539 0.195-0.167 0.055-0.392 0.134-0.675 0.238s-0.466 0.17-0.549 0.197c0.012 0.020 0.023 0.051 0.033 0.093 0.079 0.333 0.121 1.131 0.127 2.393 0.445-0.083 0.915-0.205 1.409-0.367 0.501-0.163 0.809-0.259 0.922-0.286 0.27-0.064 0.418-0.039 0.445 0.074 0.052 0.22-0.213 0.477-0.796 0.772-0.575 0.293-1.229 0.526-1.96 0.699z"></path>
<path fill="#2c2c2c" style="fill: var(--color4, #2c2c2c)" d="M8.071 18.397c-0.057-0.241-0.15-0.458-0.278-0.652-0.13-0.201-0.281-0.334-0.454-0.397-0.458 0.251-0.791 0.729-0.999 1.437-0.202 0.699-0.239 1.32-0.11 1.866s0.344 0.853 0.646 0.924c0.488-0.22 0.839-0.67 1.053-1.349 0.22-0.688 0.267-1.297 0.141-1.828zM5.292 19.155c0.118-0.611 0.334-1.141 0.648-1.589 0.319-0.457 0.688-0.735 1.107-0.834 0.426-0.101 0.824-0.004 1.193 0.29 0.368 0.287 0.613 0.689 0.735 1.206 0.121 0.51 0.12 1.063-0.001 1.661-0.123 0.59-0.363 1.114-0.719 1.573-0.351 0.45-0.771 0.732-1.261 0.848-0.362 0.086-0.703-0.009-1.023-0.285s-0.54-0.669-0.661-1.179c-0.122-0.517-0.128-1.080-0.017-1.69z"></path>
<path fill="#2c2c2c" style="fill: var(--color4, #2c2c2c)" d="M12.896 17.255c-0.057-0.241-0.15-0.458-0.278-0.652-0.13-0.201-0.281-0.334-0.454-0.397-0.458 0.251-0.791 0.729-0.999 1.437-0.202 0.699-0.239 1.32-0.11 1.866s0.344 0.853 0.646 0.924c0.488-0.22 0.839-0.67 1.053-1.349 0.22-0.688 0.267-1.297 0.141-1.828zM10.118 18.013c0.118-0.611 0.334-1.141 0.648-1.589 0.319-0.457 0.688-0.735 1.107-0.834 0.426-0.101 0.824-0.004 1.193 0.29 0.368 0.287 0.613 0.689 0.735 1.206 0.121 0.51 0.12 1.064-0.001 1.661-0.123 0.59-0.363 1.114-0.719 1.573-0.351 0.45-0.771 0.732-1.261 0.848-0.362 0.086-0.703-0.009-1.023-0.285s-0.54-0.669-0.661-1.179c-0.122-0.517-0.128-1.080-0.017-1.69z"></path>
<path fill="#2c2c2c" style="fill: var(--color4, #2c2c2c)" d="M17.933 11.014c0.114-0.027 0.277 0.047 0.491 0.22 0.219 0.165 0.35 0.34 0.394 0.524s0.079 0.729 0.106 1.635c0.025 0.899 0.029 1.837 0.013 2.813-0.022 2.189-0.115 3.303-0.278 3.342-0.099 0.023-0.224-0.011-0.373-0.102-0.144-0.101-0.227-0.197-0.248-0.289s-0.040-0.282-0.056-0.57c-0.528 0.873-1.052 1.371-1.57 1.493-0.312 0.074-0.63-0.001-0.953-0.223-0.315-0.225-0.509-0.489-0.581-0.794-0.104-0.439-0.11-0.987-0.018-1.645 0.097-0.666 0.311-1.3 0.641-1.902s0.747-0.962 1.251-1.081c0.504-0.119 0.927 0.099 1.268 0.654 0.007-1.587-0.075-2.821-0.245-3.7-0.050-0.213 0.003-0.337 0.159-0.374zM17.995 16.508c-0.090-0.382-0.234-0.689-0.431-0.919-0.19-0.232-0.377-0.326-0.562-0.282-0.305 0.072-0.573 0.334-0.804 0.785s-0.384 0.944-0.46 1.478c-0.071 0.525-0.064 0.965 0.020 1.319 0.030 0.128 0.101 0.219 0.211 0.275s0.23 0.069 0.358 0.039c0.277-0.066 0.603-0.352 0.978-0.86 0.382-0.509 0.616-1.058 0.701-1.647l0.002-0.135-0.013-0.053z"></path>
<path fill="#2c2c2c" style="fill: var(--color4, #2c2c2c)" d="M24.793 15.864c0.137 0.581-0.010 1.132-0.441 1.653-0.433 0.514-0.991 0.852-1.672 1.013-0.674 0.16-1.273 0.118-1.795-0.125-0.524-0.25-0.823-0.531-0.896-0.842-0.050-0.212-0.011-0.334 0.116-0.364 0.114-0.027 0.377 0.090 0.792 0.351 0.156 0.090 0.353 0.163 0.592 0.219 0.245 0.054 0.488 0.053 0.73-0.004 0.497-0.118 0.907-0.349 1.23-0.695 0.33-0.347 0.46-0.67 0.39-0.967-0.045-0.191-0.231-0.405-0.557-0.642s-0.676-0.45-1.050-0.638c-0.369-0.197-0.717-0.417-1.045-0.661s-0.512-0.455-0.554-0.632c-0.042-0.177-0.051-0.373-0.027-0.588s0.068-0.379 0.131-0.491c0.205-0.37 0.568-0.752 1.090-1.144 0.529-0.394 0.992-0.639 1.39-0.733 0.206-0.049 0.396-0.023 0.57 0.078s0.278 0.226 0.313 0.375c0.017 0.071-0.044 0.145-0.183 0.223s-0.353 0.188-0.641 0.331c-0.283 0.134-0.531 0.275-0.744 0.423-0.743 0.505-1.080 0.902-1.011 1.193 0.037 0.156 0.555 0.493 1.555 1.012 0.385 0.201 0.749 0.455 1.091 0.763 0.348 0.299 0.557 0.597 0.628 0.895z"></path>
<path fill="#2c2c2c" style="fill: var(--color4, #2c2c2c)" d="M27.238 16.396c0.032 0.135 0.126 0.183 0.282 0.146 0.27-0.064 0.579-0.215 0.927-0.455 0.354-0.248 0.552-0.377 0.594-0.387 0.128-0.030 0.208 0.022 0.239 0.156 0.049 0.205-0.108 0.493-0.471 0.863-0.355 0.368-0.707 0.594-1.055 0.676-0.341 0.081-0.647 0.056-0.917-0.075-0.272-0.137-0.432-0.305-0.479-0.504s-0.064-0.46-0.051-0.785c0.012-0.332 0.036-0.768 0.073-1.308 0.043-0.549 0.071-1 0.084-1.355-0.315 0.157-0.53 0.249-0.643 0.276s-0.241-0.003-0.381-0.089c-0.135-0.095-0.215-0.196-0.24-0.302-0.040-0.17 0.383-0.442 1.269-0.816-0.011-0.618-0.070-1.154-0.178-1.607-0.050-0.213-0.004-0.335 0.138-0.369 0.121-0.029 0.288 0.014 0.503 0.128 0.213 0.107 0.342 0.256 0.387 0.447s0.064 0.542 0.058 1.052c0.396-0.131 0.715-0.225 0.957-0.282 0.426-0.101 0.661-0.059 0.704 0.125 0.025 0.106-0.071 0.223-0.289 0.349-0.21 0.125-0.667 0.349-1.371 0.672-0.017 0.595-0.053 1.28-0.11 2.057-0.058 0.769-0.069 1.232-0.032 1.387z"></path>
<path fill="#2c2c2c" style="fill: var(--color4, #2c2c2c)" d="M32.002 10.826c0.319-0.076 0.653 0.018 0.999 0.28 0.345 0.255 0.549 0.513 0.611 0.775 0.060 0.255 0.033 0.538-0.080 0.849 0.11 0.086 0.175 0.168 0.193 0.246 0.047 0.198 0.081 0.549 0.103 1.053 0.029 0.502 0.050 0.83 0.064 0.983 0.021 0.152 0.035 0.276 0.043 0.371 0.006 0.088 0.008 0.178 0.007 0.268 0.013 0.184-0.030 0.287-0.129 0.311-0.128 0.030-0.26-0.054-0.397-0.254-0.132-0.208-0.246-0.488-0.344-0.838-0.443 0.95-0.934 1.489-1.473 1.616-0.327 0.077-0.682 0.016-1.067-0.185-0.379-0.209-0.604-0.463-0.675-0.76-0.101-0.425-0.068-0.986 0.097-1.683 0.163-0.704 0.436-1.36 0.817-1.966s0.792-0.962 1.232-1.066zM32.934 12.58c-0.156-0.659-0.365-0.957-0.628-0.895-0.277 0.066-0.553 0.34-0.828 0.824-0.277 0.477-0.485 0.994-0.623 1.55s-0.173 0.98-0.105 1.27c0.028 0.12 0.102 0.208 0.219 0.262 0.116 0.047 0.242 0.055 0.377 0.023 0.334-0.079 0.657-0.391 0.971-0.937 0.312-0.552 0.473-1.17 0.484-1.853-0.004-0.111 0.041-0.189 0.136-0.234l-0.002-0.011z"></path>
<path fill="#bbf330" style="fill: var(--color5, #bbf330)" d="M30.75 19.975c-0.304 0.075-0.544 0.306-0.644 0.603-1.907 5.652-7.247 9.717-13.529 9.717-3.81 0-7.274-1.495-9.835-3.933-0.227-0.216-0.548-0.309-0.853-0.234-0.64 0.159-0.883 0.932-0.409 1.39 2.875 2.776 6.787 4.483 11.097 4.483 7.079 0 13.084-4.605 15.186-10.986 0.206-0.626-0.372-1.198-1.013-1.040z"></path>
<path fill="#bbf330" style="fill: var(--color5, #bbf330)" d="M1.865 14.148c0.347-0.086 0.604-0.374 0.668-0.725 1.212-6.669 7.044-11.718 14.045-11.718 4.553 0 8.612 2.135 11.227 5.463 0.221 0.281 0.583 0.416 0.93 0.33 0.585-0.145 0.85-0.823 0.481-1.298-2.925-3.772-7.498-6.2-12.638-6.2-7.883 0-14.433 5.71-15.747 13.224-0.104 0.593 0.448 1.070 1.034 0.925z"></path>
<path fill="#bbf330" style="fill: var(--color5, #bbf330)" d="M40.615 5.331c-3.778 7.241-5.437 2.465-10.755 5.271 0.532-8.406 6.165-3.291 10.755-5.271z"></path>
</symbol>
<symbol id="icon-icon-deliv" viewBox="0 0 32 32">
<path fill="#fefefe" style="fill: var(--color1, #fefefe)" d="M32 16c0 8.837-7.163 16-16 16s-16-7.163-16-16c0-8.837 7.163-16 16-16s16 7.163 16 16z"></path>
<path fill="#7eb101" style="fill: var(--color2, #7eb101)" d="M9.489 14.422l2.356 1c0.267-0.533 0.552-1.059 0.856-1.578s0.626-1.015 0.967-1.489l-1.756-0.356-2.422 2.422zM12.911 16.222l2.956 2.956c0.844-0.385 1.637-0.822 2.378-1.311s1.341-0.963 1.8-1.422c1.2-1.2 2.081-2.43 2.644-3.689s0.867-2.682 0.911-4.267c-1.585 0.044-3.007 0.348-4.267 0.911s-2.489 1.444-3.689 2.644c-0.459 0.459-0.933 1.059-1.422 1.8s-0.926 1.533-1.311 2.378zM18 14.089c-0.296-0.296-0.444-0.663-0.444-1.1s0.148-0.804 0.444-1.1c0.296-0.296 0.663-0.444 1.1-0.444s0.804 0.148 1.1 0.444c0.296 0.296 0.444 0.663 0.444 1.1s-0.148 0.804-0.444 1.1c-0.296 0.296-0.663 0.444-1.1 0.444s-0.804-0.148-1.1-0.444zM17.667 22.6l2.422-2.422-0.356-1.756c-0.474 0.341-0.97 0.663-1.489 0.967s-1.044 0.589-1.578 0.856l1 2.356zM24.911 7.178c0.133 2.015-0.119 3.852-0.756 5.511s-1.689 3.222-3.156 4.689l-0.089 0.089 0.489 2.444c0.044 0.222 0.033 0.437-0.033 0.644s-0.181 0.393-0.344 0.556l-3.8 3.822-1.889-4.4-3.778-3.778-4.4-1.889 3.822-3.8c0.163-0.163 0.348-0.278 0.556-0.344s0.422-0.078 0.644-0.033l2.444 0.489c0.015-0.015 0.030-0.026 0.044-0.033s0.030-0.019 0.044-0.033c1.467-1.467 3.030-2.522 4.689-3.167s3.496-0.9 5.511-0.767zM8.644 19.444c0.518-0.519 1.152-0.781 1.9-0.789s1.381 0.248 1.9 0.767c0.518 0.518 0.774 1.152 0.767 1.9s-0.27 1.381-0.789 1.9c-0.385 0.385-0.981 0.704-1.789 0.956s-2.019 0.489-3.633 0.711c0.222-1.615 0.456-2.83 0.7-3.644s0.559-1.415 0.944-1.8zM9.578 20.4c-0.207 0.222-0.393 0.57-0.556 1.044s-0.304 1.081-0.422 1.822c0.741-0.118 1.348-0.259 1.822-0.422s0.822-0.348 1.044-0.556c0.281-0.252 0.426-0.567 0.433-0.944s-0.122-0.707-0.389-0.989c-0.282-0.267-0.611-0.396-0.989-0.389s-0.693 0.152-0.944 0.433z"></path>
</symbol>
<symbol id="icon-icon-order" viewBox="0 0 32 32">
<path fill="#fefefe" style="fill: var(--color1, #fefefe)" d="M32 16c0 8.837-7.163 16-16 16s-16-7.163-16-16c0-8.837 7.163-16 16-16s16 7.163 16 16z"></path>
<path fill="#7eb101" style="fill: var(--color2, #7eb101)" d="M15.667 6.222c1.348 0 2.5 0.47 3.456 1.411s1.433 2.085 1.433 3.433c0 0.77-0.167 1.496-0.5 2.178s-0.804 1.259-1.411 1.733h-0.756v-1.111c0.43-0.341 0.759-0.756 0.989-1.244s0.344-1.007 0.344-1.556c0-0.978-0.348-1.807-1.044-2.489s-1.533-1.022-2.511-1.022-1.815 0.341-2.511 1.022c-0.696 0.682-1.044 1.511-1.044 2.489 0 0.548 0.115 1.067 0.344 1.556s0.559 0.904 0.989 1.244v1.6c-0.83-0.43-1.481-1.037-1.956-1.822s-0.711-1.644-0.711-2.578c0-1.348 0.478-2.493 1.433-3.433s2.107-1.411 3.456-1.411zM14.822 24.889c-0.252 0-0.489-0.048-0.711-0.144s-0.415-0.226-0.578-0.389l-4.578-4.578 1.244-1.289c0.207-0.207 0.441-0.367 0.7-0.478s0.53-0.13 0.811-0.056l1.733 0.4v-7.244c0-0.622 0.215-1.148 0.644-1.578s0.956-0.644 1.578-0.644 1.148 0.215 1.578 0.644c0.43 0.43 0.644 0.956 0.644 1.578v3.822h0.578c0.074 0 0.141 0.015 0.2 0.044s0.126 0.059 0.2 0.089l3.289 1.6c0.356 0.163 0.619 0.426 0.789 0.789s0.219 0.737 0.144 1.122l-0.8 4.844c-0.074 0.43-0.281 0.781-0.622 1.056s-0.726 0.411-1.156 0.411h-5.689zM14.644 23.556h6.244l0.956-5.533-4.067-2.022h-1.222v-4.889c0-0.267-0.081-0.481-0.244-0.644s-0.378-0.244-0.644-0.244-0.481 0.081-0.644 0.244c-0.163 0.163-0.244 0.378-0.244 0.644v8.867l-3.422-0.733-0.511 0.511 3.8 3.8zM20.889 23.556v0z"></path>
</symbol>
<symbol id="icon-stars" viewBox="0 0 202 32">
<path fill="#ffe550" style="fill: var(--color1, #ffe550)" d="M15.421 1.037c0.584-1.383 2.575-1.383 3.159 0l3.449 8.164c0.247 0.583 0.804 0.982 1.443 1.032l8.952 0.707c1.517 0.12 2.132 1.983 0.976 2.958l-6.821 5.752c-0.487 0.411-0.7 1.056-0.551 1.67l2.084 8.6c0.353 1.457-1.257 2.609-2.556 1.828l-7.664-4.609c-0.547-0.329-1.236-0.329-1.783 0l-7.664 4.609c-1.299 0.781-2.909-0.371-2.556-1.828l2.084-8.6c0.149-0.614-0.064-1.259-0.551-1.67l-6.821-5.752c-1.156-0.975-0.541-2.838 0.976-2.958l8.952-0.707c0.639-0.050 1.196-0.449 1.443-1.032l3.449-8.164z"></path>
<path fill="#ffe550" style="fill: var(--color1, #ffe550)" d="M57.421 1.037c0.584-1.383 2.575-1.383 3.159 0l3.449 8.164c0.247 0.583 0.804 0.982 1.443 1.032l8.952 0.707c1.517 0.12 2.132 1.983 0.976 2.958l-6.821 5.752c-0.487 0.411-0.7 1.056-0.551 1.67l2.084 8.6c0.353 1.457-1.257 2.609-2.556 1.828l-7.664-4.609c-0.548-0.329-1.236-0.329-1.783 0l-7.664 4.609c-1.299 0.781-2.909-0.371-2.556-1.828l2.084-8.6c0.149-0.614-0.064-1.259-0.551-1.67l-6.821-5.752c-1.156-0.975-0.541-2.838 0.976-2.958l8.952-0.707c0.639-0.050 1.196-0.449 1.443-1.032l3.449-8.164z"></path>
<path fill="#ffe550" style="fill: var(--color1, #ffe550)" d="M99.421 1.037c0.584-1.383 2.575-1.383 3.159 0l3.449 8.164c0.247 0.583 0.804 0.982 1.443 1.032l8.952 0.707c1.517 0.12 2.132 1.983 0.976 2.958l-6.821 5.752c-0.487 0.411-0.7 1.056-0.551 1.67l2.084 8.6c0.353 1.457-1.257 2.609-2.556 1.828l-7.664-4.609c-0.548-0.329-1.236-0.329-1.783 0l-7.664 4.609c-1.299 0.781-2.909-0.371-2.556-1.828l2.084-8.6c0.149-0.614-0.064-1.259-0.551-1.67l-6.821-5.752c-1.156-0.975-0.541-2.838 0.976-2.958l8.952-0.707c0.639-0.050 1.196-0.449 1.443-1.032l3.449-8.164z"></path>
<path fill="#ffe550" style="fill: var(--color1, #ffe550)" d="M141.421 1.037c0.584-1.383 2.575-1.383 3.159 0l3.449 8.164c0.247 0.583 0.804 0.982 1.443 1.032l8.952 0.707c1.517 0.12 2.132 1.983 0.976 2.958l-6.821 5.752c-0.487 0.411-0.7 1.056-0.551 1.67l2.084 8.6c0.353 1.457-1.257 2.609-2.556 1.828l-7.664-4.609c-0.548-0.329-1.236-0.329-1.783 0l-7.664 4.609c-1.299 0.781-2.909-0.371-2.556-1.828l2.084-8.6c0.149-0.614-0.064-1.259-0.551-1.67l-6.821-5.752c-1.156-0.975-0.541-2.838 0.976-2.958l8.952-0.707c0.639-0.050 1.196-0.449 1.443-1.032l3.449-8.164z"></path>
<path fill="#ffe550" style="fill: var(--color1, #ffe550)" d="M183.421 1.037c0.584-1.383 2.575-1.383 3.159 0l3.449 8.164c0.247 0.583 0.804 0.982 1.443 1.032l8.953 0.707c1.516 0.12 2.132 1.983 0.976 2.958l-6.821 5.752c-0.487 0.411-0.7 1.056-0.551 1.67l2.084 8.6c0.353 1.457-1.257 2.609-2.556 1.828l-7.664-4.609c-0.548-0.329-1.236-0.329-1.783 0l-7.664 4.609c-1.299 0.781-2.909-0.371-2.556-1.828l2.084-8.6c0.149-0.614-0.064-1.259-0.551-1.67l-6.821-5.752c-1.156-0.975-0.541-2.838 0.976-2.958l8.952-0.707c0.639-0.050 1.196-0.449 1.443-1.032l3.449-8.164z"></path>
</symbol>
<symbol id="icon-to-top" viewBox="0 0 32 32">
<path d="M27.414 12.586l-10-10c-0.781-0.781-2.047-0.781-2.828 0l-10 10c-0.781 0.781-0.781 2.047 0 2.828s2.047 0.781 2.828 0l6.586-6.586v19.172c0 1.105 0.895 2 2 2s2-0.895 2-2v-19.172l6.586 6.586c0.39 0.39 0.902 0.586 1.414 0.586s1.024-0.195 1.414-0.586c0.781-0.781 0.781-2.047 0-2.828z"></path>
</symbol>

</defs>
</svg>